# xmcd
#
# Track frame offsets:
#	150
#	19021
#	35398
#	49795
#	69858
#	86516
#	102666
#	119106
#	128695
#	147590
#	166804
#	183191
#	194908
#	215762
#	231706
#	248036
#	264925
#
# Disc length: 3855 seconds
#
# Revision: 0
# Processed by: cddbd v1.5.2PL0 Copyright (c) Steve Scherf et al.
# Submitted via: dBpowerAMP V4.0
#
DISCID=fe0f0d11
DTITLE=Fleetwood Mac - Greatest Hits
DYEAR=1988
DGENRE=Blues
TTITLE0=Rhiannon
TTITLE1=Go Your Own Way
TTITLE2=Don't Stop
TTITLE3=Gypsy
TTITLE4=Everywhere
TTITLE5=You Make Loving Fun
TTITLE6=Big Love
TTITLE7=As Long As You Follow
TTITLE8=Say You Love Me
TTITLE9=Dreams
TTITLE10=Little Lies
TTITLE11=Oh Diane
TTITLE12=Sara
TTITLE13=Tusk
TTITLE14=Seven Wonders
TTITLE15=Hold Me
TTITLE16=No Questions Asked
EXTD=
EXTT0=
EXTT1=
EXTT2=
EXTT3=
EXTT4=
EXTT5=
EXTT6=
EXTT7=
EXTT8=
EXTT9=
EXTT10=
EXTT11=
EXTT12=
EXTT13=
EXTT14=
EXTT15=
EXTT16=
PLAYORDER=
